<?xml version="1.0" encoding="utf-8"?>
<!-- Generator: Adobe Illustrator 17.0.0, SVG Export Plug-In . SVG Version: 6.00 Build 0)  -->
<!DOCTYPE svg PUBLIC "-//W3C//DTD SVG 1.1//EN" "http://www.w3.org/Graphics/SVG/1.1/DTD/svg11.dtd">
<svg version="1.1" id="Layer_1" xmlns="http://www.w3.org/2000/svg" xmlns:xlink="http://www.w3.org/1999/xlink" x="0px" y="0px"
	 width="29px" height="20px" viewBox="0 0 29 20" enable-background="new 0 0 29 20" xml:space="preserve">
<path fill="#CCCCCC" d="M28.541,11.695l-3.32,6.919c-0.415,0.805-1.245,1.311-2.151,1.311H3.493c-0.361,0-0.595-0.38-0.432-0.702
	l0.008-0.016c0.265-0.526,0.108-1.167-0.371-1.509l-0.027-0.019c-1.112-0.795-1.772-2.078-1.772-3.446v-1.569h17.429v-0.01
	c0-0.529,0.429-0.958,0.959-0.958H28.541z M17.359,5.885H13.97c-0.267,0-0.484,0.217-0.484,0.484v5.326
	c0,0.267,0.217,0.484,0.484,0.484h3.389c0.267,0,0.484-0.217,0.484-0.484V6.369C17.843,6.102,17.626,5.885,17.359,5.885
	L17.359,5.885z M23.169,7.821h-3.873c-0.267,0-0.484,0.217-0.484,0.484v1.936c0,0.267,0.217,0.484,0.484,0.484h3.873
	c0.267,0,0.484-0.217,0.484-0.484V8.306C23.653,8.038,23.436,7.821,23.169,7.821L23.169,7.821z M8.161,12.179h3.873
	c0.267,0,0.484-0.217,0.484-0.484V7.821c0-0.267-0.217-0.484-0.484-0.484H8.161c-0.267,0-0.484,0.217-0.484,0.484v3.873
	C7.677,11.962,7.893,12.179,8.161,12.179L8.161,12.179z M7.913,4.917L6.708,5.885v6.294H1.867V5.885H0.415V4.917h3.389V3.513H2.552
	V2.948h1.252V0.075h0.484v2.872h1.251v0.565H4.288v1.404H7.913z M5.834,8.9H4.258v1.446h1.575V8.9z M5.834,6.583H4.258v1.446h1.575
	V6.583z M5.834,6.583"/>
</svg>
