<?xml version="1.0" encoding="utf-8"?>
<!-- Generator: Adobe Illustrator 17.0.0, SVG Export Plug-In . SVG Version: 6.00 Build 0)  -->
<!DOCTYPE svg PUBLIC "-//W3C//DTD SVG 1.1//EN" "http://www.w3.org/Graphics/SVG/1.1/DTD/svg11.dtd">
<svg version="1.1" id="Layer_1" xmlns="http://www.w3.org/2000/svg" xmlns:xlink="http://www.w3.org/1999/xlink" x="0px" y="0px"
	 width="194.947px" height="24.276px" viewBox="0 0 194.947 24.276" enable-background="new 0 0 194.947 24.276"
	 xml:space="preserve">
<g>
	<g>
		<path fill="#EC1E3C" d="M31.996,0l-6.928,8.351h1.627l4.906,5.666H20.41l-2.538,3.056h16.302l2.554,2.936
			c2.444,2.679,5.499,4.267,8.814,4.267h12.159c0,0-2.608-2.178-11.061-11.967C38.192,2.514,36.751,0,36.751,0H31.996z"/>
	</g>
	<g>
		<polygon fill="#EC1E3C" points="20.608,0 0,24.276 8.243,24.276 20.512,9.736 28.592,0 		"/>
	</g>
	<g>
		<path fill="#EC1E3C" d="M169.26,0l-6.935,8.351h1.614l4.904,5.666h-11.189l-2.538,3.056h16.301l2.562,2.942
			c2.437,2.673,5.493,4.261,8.806,4.261h12.162c0,0-2.605-2.178-11.058-11.967C175.438,2.514,173.998,0,173.998,0H169.26z"/>
	</g>
	<g>
		<polygon fill="#EC1E3C" points="128.128,10.521 128.128,13.794 140.418,13.794 144.055,10.521 		"/>
	</g>
	<g>
		<path fill="#EC1E3C" d="M59.136,0c0,0,0.725,3.15,0.725,12.298c0,9.149-0.725,11.978-0.725,11.978h16.053V4.334
			c0-2.393-1.357-4.334-3.03-4.334H59.136z"/>
	</g>
	<g>
		<polygon fill="#EC1E3C" points="157.855,0 137.244,24.276 145.487,24.276 158.365,9.021 165.847,0 		"/>
	</g>
	<g>
		<path fill="#EC1E3C" d="M109.879,0c0,0,0.725,3.15,0.725,12.298c0,9.149-0.725,11.978-0.725,11.978h13.022
			c1.672,0,3.033-1.938,3.033-4.33v-6.153v-3.273V7.183V5.356h22.186L152.96,0H109.879z"/>
	</g>
	<g>
		<polygon fill="#EC1E3C" points="93.394,0 76.047,12.302 79.941,15.27 101.462,0 		"/>
	</g>
	<g>
		<path fill="#EC1E3C" d="M82.321,17.086l6.44,4.92c1.979,1.452,4.227,2.271,6.608,2.271h13.65L91.288,10.724L82.321,17.086z"/>
	</g>
</g>
</svg>
