<?xml version="1.0" encoding="utf-8"?>
<!-- Generator: Adobe Illustrator 17.0.0, SVG Export Plug-In . SVG Version: 6.00 Build 0)  -->
<!DOCTYPE svg PUBLIC "-//W3C//DTD SVG 1.1//EN" "http://www.w3.org/Graphics/SVG/1.1/DTD/svg11.dtd">
<svg version="1.1" id="Layer_1" xmlns="http://www.w3.org/2000/svg" xmlns:xlink="http://www.w3.org/1999/xlink" x="0px" y="0px"
	 width="20.563px" height="22.8px" viewBox="0 0 20.563 22.8" enable-background="new 0 0 20.563 22.8" xml:space="preserve">
<g>
	<g>
		<path fill="none" stroke="#FEF6BD" stroke-width="2" stroke-miterlimit="10" d="M10.281,21.8c3.828,0,7.182-1.615,9.096-4.622
			c-1.914-3.007-5.268-5.393-9.096-5.393s-7.182,2.386-9.096,5.393C3.099,20.184,6.453,21.8,10.281,21.8z"/>
		<path fill="none" stroke="#FEF6BD" stroke-width="2" stroke-miterlimit="10" d="M13.963,4.682c0,2.033-1.648,4.022-3.682,4.022
			S6.6,6.715,6.6,4.682S8.248,1,10.281,1S13.963,2.648,13.963,4.682z"/>
	</g>
	<g>
		<path fill="none" stroke="#EC1E3C" stroke-width="2" stroke-miterlimit="10" d="M10.281,21.8c3.828,0,7.182-1.615,9.096-4.622
			c-1.914-3.007-5.268-5.393-9.096-5.393s-7.182,2.386-9.096,5.393C3.099,20.184,6.453,21.8,10.281,21.8z"/>
		<path fill="none" stroke="#EC1E3C" stroke-width="2" stroke-miterlimit="10" d="M13.963,4.682c0,2.033-1.648,4.022-3.682,4.022
			S6.6,6.715,6.6,4.682S8.248,1,10.281,1S13.963,2.648,13.963,4.682z"/>
	</g>
</g>
</svg>
